<?xml version="1.0" encoding="utf-8"?>
<!-- Generator: Adobe Illustrator 23.0.2, SVG Export Plug-In . SVG Version: 6.00 Build 0)  -->
<svg version="1.1" id="Capa_1" xmlns="http://www.w3.org/2000/svg" xmlns:xlink="http://www.w3.org/1999/xlink" x="0px" y="0px"
	 viewBox="0 0 80.4 70" style="enable-background:new 0 0 80.4 70;" xml:space="preserve">
<style type="text/css">
	.st0{fill:#C0232E;}
	.st1{fill:#FFFFFF;}
	.st2{enable-background:new    ;}
</style>
<title>log-webbus</title>
<rect class="st0" width="80.4" height="70"/>
<polygon class="st1" points="40.4,16.1 66.7,42.4 57.9,50.9 40.4,33.7 22.9,51.5 14.2,42.4 "/>
<polygon class="st1" points="66.7,7.4 66.7,33.8 57.9,24.9 57.9,16.1 "/>
<polygon class="st1" points="14.2,7.4 14.2,33.8 22.9,24.9 22.9,16.1 "/>
<g class="st2">
	<path class="st1" d="M19.8,57.9h0.9l-1.8,3.6h-1.1l-0.5-1.1l-0.5,1.1h-1.1l-1.8-3.6h0.9l1.5,2.9l0.6-1.2L16,57.9h0.9l1.5,2.9
		L19.8,57.9z"/>
	<path class="st1" d="M20.9,57.9h3.8v0.7h-3.8V57.9z M21.7,59v0.4c0.3,0,0.7,0,1.2,0s0.9,0,1.4,0V60h-2.5v0.8h3.1v0.7h-3.8V59H21.7z
		"/>
	<path class="st1" d="M25.8,59v0.4l2,0c0.1,0,0.2,0,0.2-0.1c0,0,0.1-0.1,0.1-0.3c0-0.1,0-0.2,0-0.3c0-0.1,0-0.1-0.1-0.1
		s-0.1,0-0.2,0h-2.8v-0.7h3.1c0.2,0,0.4,0.1,0.5,0.2s0.2,0.3,0.2,0.5v0.7c0,0.1,0,0.2-0.1,0.2c0.2,0.1,0.3,0.3,0.3,0.5v0.9
		c0,0.4-0.2,0.6-0.7,0.6h-3.4V59H25.8z M28.3,60.7c0,0,0.1-0.1,0.1-0.3c0-0.2,0-0.3-0.1-0.3S28.2,60,28.1,60h-2.3v0.8h2.3
		C28.2,60.8,28.3,60.8,28.3,60.7z"/>
	<path class="st1" d="M33.9,60h-0.2v0v0.6c0,0.2,0,0.3-0.1,0.4c-0.1,0.1-0.2,0.2-0.3,0.3s-0.3,0.1-0.4,0.1h-1.6
		c-0.2,0-0.3,0-0.4-0.1c-0.1-0.1-0.2-0.2-0.3-0.3s-0.1-0.3-0.1-0.4V60c0-0.1,0-0.3,0.1-0.4c0.1-0.1,0.2-0.2,0.3-0.3
		c-0.1-0.1-0.1-0.2-0.1-0.3v-0.3c0-0.2,0-0.3,0.1-0.4c0.1-0.1,0.2-0.2,0.3-0.3c0.1-0.1,0.3-0.1,0.4-0.1h0.8v-0.1h0.7v0.9h-0.7v-0.1
		h-0.7c-0.1,0-0.2,0-0.2,0.1s0,0.1,0,0.2c0,0.1,0,0.2,0,0.3s0,0.1,0.1,0.1c0,0,0.1,0,0.2,0h0.1V60h-0.4c-0.1,0-0.2,0-0.2,0.1
		c0,0.1-0.1,0.2-0.1,0.3c0,0.1,0,0.2,0.1,0.3c0,0.1,0.1,0.1,0.2,0.1h1.2c0.1,0,0.2,0,0.2-0.1c0-0.1,0.1-0.2,0.1-0.3
		c0-0.1,0-0.2-0.1-0.3c0-0.1-0.1-0.1-0.2-0.1h-0.3v-0.7h1.5V60z"/>
	<path class="st1" d="M36,59v0.4l2,0c0.1,0,0.2,0,0.2-0.1c0,0,0.1-0.1,0.1-0.3c0-0.1,0-0.2,0-0.3c0-0.1,0-0.1-0.1-0.1s-0.1,0-0.2,0
		h-2.8v-0.7h3.1c0.2,0,0.4,0.1,0.5,0.2s0.2,0.3,0.2,0.5v0.7c0,0.1,0,0.2-0.1,0.2c0.2,0.1,0.3,0.3,0.3,0.5v0.9c0,0.4-0.2,0.6-0.7,0.6
		h-3.4V59H36z M38.5,60.7c0,0,0.1-0.1,0.1-0.3c0-0.2,0-0.3-0.1-0.3S38.4,60,38.3,60H36v0.8h2.3C38.4,60.8,38.4,60.8,38.5,60.7z"/>
	<path class="st1" d="M39.8,61.3c-0.1-0.1-0.2-0.3-0.2-0.5v-2.9h0.8v2.6c0,0.1,0,0.2,0.1,0.2c0,0,0.1,0.1,0.2,0.1h2.1
		c0.1,0,0.1,0,0.2,0c0,0,0.1,0,0.1-0.1c0,0,0-0.1,0-0.2v-2.6h0.7v2.9c0,0.2-0.1,0.4-0.2,0.5c-0.1,0.1-0.3,0.2-0.5,0.2h-2.6
		C40.1,61.5,40,61.4,39.8,61.3z"/>
	<path class="st1" d="M44.2,61.3C44,61.2,44,61.1,44,60.8v-0.4h0.7v0.1c0,0.1,0,0.2,0.1,0.2s0.1,0.1,0.2,0.1H47c0.1,0,0.1,0,0.2,0
		c0,0,0.1,0,0.1-0.1c0,0,0-0.1,0-0.2v-0.1c0-0.1,0-0.2,0-0.2c0,0,0-0.1-0.1-0.1c0,0-0.1,0-0.2,0l-2.3,0c-0.1,0-0.2,0-0.4-0.1
		c-0.1-0.1-0.2-0.1-0.3-0.3C44,59.6,44,59.5,44,59.3v-0.7c0-0.1,0-0.3,0.1-0.4c0.1-0.1,0.2-0.2,0.3-0.3s0.2-0.1,0.4-0.1h2.6
		c0.2,0,0.4,0.1,0.5,0.2c0.1,0.1,0.2,0.3,0.2,0.5V59h-0.7v0c0-0.1,0-0.2,0-0.2s0-0.1-0.1-0.1c0,0-0.1,0-0.2,0h-2.1
		c-0.1,0-0.2,0-0.2,0.1s0,0.2,0,0.3c0,0.1,0,0.2,0,0.3c0,0.1,0.1,0.1,0.2,0.1h2.4c0.2,0,0.4,0.1,0.5,0.2c0.1,0.1,0.2,0.3,0.2,0.5
		v0.8c0,0.2-0.1,0.4-0.2,0.5c-0.1,0.1-0.3,0.2-0.5,0.2h-2.6C44.5,61.5,44.3,61.4,44.2,61.3z"/>
	<path class="st1" d="M48.3,57.9h0.8v3.6h-0.8V57.9z"/>
	<path class="st1" d="M49.4,57.9h1.2l2,2.9v-2.9h0.7v3.6h-1.2l-2-2.9v2.9h-0.7V57.9z"/>
	<path class="st1" d="M53.6,57.9h3.8v0.7h-3.8V57.9z M54.4,59v0.4c0.3,0,0.7,0,1.2,0s0.9,0,1.4,0V60h-2.5v0.8h3.1v0.7h-3.8V59H54.4z
		"/>
	<path class="st1" d="M58,61.3c-0.1-0.1-0.2-0.3-0.2-0.5v-0.4h0.7v0.1c0,0.1,0,0.2,0.1,0.2s0.1,0.1,0.2,0.1h2.1c0.1,0,0.1,0,0.2,0
		c0,0,0.1,0,0.1-0.1c0,0,0-0.1,0-0.2v-0.1c0-0.1,0-0.2,0-0.2c0,0,0-0.1-0.1-0.1c0,0-0.1,0-0.2,0l-2.3,0c-0.1,0-0.2,0-0.4-0.1
		c-0.1-0.1-0.2-0.1-0.3-0.3c-0.1-0.1-0.1-0.2-0.1-0.4v-0.7c0-0.1,0-0.3,0.1-0.4c0.1-0.1,0.2-0.2,0.3-0.3s0.2-0.1,0.4-0.1h2.6
		c0.2,0,0.4,0.1,0.5,0.2c0.1,0.1,0.2,0.3,0.2,0.5V59h-0.7v0c0-0.1,0-0.2,0-0.2s0-0.1-0.1-0.1c0,0-0.1,0-0.2,0h-2.1
		c-0.1,0-0.2,0-0.2,0.1s0,0.2,0,0.3c0,0.1,0,0.2,0,0.3c0,0.1,0.1,0.1,0.2,0.1h2.4c0.2,0,0.4,0.1,0.5,0.2c0.1,0.1,0.2,0.3,0.2,0.5
		v0.8c0,0.2-0.1,0.4-0.2,0.5c-0.1,0.1-0.3,0.2-0.5,0.2h-2.6C58.3,61.5,58.1,61.4,58,61.3z"/>
	<path class="st1" d="M62.3,61.3c-0.1-0.1-0.2-0.3-0.2-0.5v-0.4h0.7v0.1c0,0.1,0,0.2,0.1,0.2c0,0,0.1,0.1,0.2,0.1h2.1
		c0.1,0,0.1,0,0.2,0c0,0,0.1,0,0.1-0.1c0,0,0-0.1,0-0.2v-0.1c0-0.1,0-0.2,0-0.2c0,0,0-0.1-0.1-0.1c0,0-0.1,0-0.2,0l-2.3,0
		c-0.1,0-0.2,0-0.4-0.1c-0.1-0.1-0.2-0.1-0.3-0.3c-0.1-0.1-0.1-0.2-0.1-0.4v-0.7c0-0.1,0-0.3,0.1-0.4s0.2-0.2,0.3-0.3
		c0.1-0.1,0.2-0.1,0.4-0.1h2.6c0.2,0,0.4,0.1,0.5,0.2c0.1,0.1,0.2,0.3,0.2,0.5V59h-0.7v0c0-0.1,0-0.2,0-0.2c0-0.1,0-0.1-0.1-0.1
		c0,0-0.1,0-0.2,0h-2.1c-0.1,0-0.2,0-0.2,0.1s0,0.2,0,0.3c0,0.1,0,0.2,0,0.3c0,0.1,0.1,0.1,0.2,0.1h2.4c0.2,0,0.4,0.1,0.5,0.2
		c0.1,0.1,0.2,0.3,0.2,0.5v0.8c0,0.2-0.1,0.4-0.2,0.5c-0.1,0.1-0.3,0.2-0.5,0.2h-2.6C62.7,61.5,62.5,61.4,62.3,61.3z"/>
</g>
</svg>
